<svg id="LOGOS_WITH_TEXT_copy" data-name="LOGOS WITH TEXT copy" xmlns="http://www.w3.org/2000/svg" xmlns:xlink="http://www.w3.org/1999/xlink" viewBox="0 0 2311.86 2311.86"><defs><style>.cls-1,.cls-3{fill:#fff;}.cls-1,.cls-5,.cls-6{fill-rule:evenodd;}.cls-2{font-size:216.25px;fill:#231f20;stroke:#010101;stroke-miterlimit:10;stroke-width:4px;font-family:DINCondensed-Bold, DIN Condensed;font-weight:700;}.cls-3{stroke:#979797;}.cls-4{mask:url(#mask);}.cls-5{fill:#a81f23;}.cls-6{fill:#010101;}</style><mask id="mask" x="141.11" y="156.8" width="2002.77" height="2002.77" maskUnits="userSpaceOnUse"><g id="mask-2"><polygon id="path-1" class="cls-1" points="141.1 156.8 2143.88 156.8 2143.88 2159.57 141.1 2159.57 141.1 156.8"/></g></mask></defs><text class="cls-2" transform="translate(537.66 3103.9) rotate(-47.37) scale(0.99 1)">P</text><text class="cls-2" transform="translate(619.85 3018.13) rotate(-38.69) scale(0.99 1)">A</text><text class="cls-2" transform="translate(720.14 2941.71) rotate(-29.34) scale(0.99 1)">U</text><text class="cls-2" transform="translate(835.53 2880.96) rotate(-20.33) scale(0.99 1)">L</text><text class="cls-2" transform="matrix(0.96, -0.22, 0.22, 0.97, 949.28, 2842.84)">I</text><text class="cls-2" transform="matrix(0.99, -0.1, 0.1, 1, 1031.96, 2825.33)">E</text><text class="cls-2" transform="matrix(0.99, 0.03, -0.03, 1, 1151.76, 2817.45)"> </text><text class="cls-2" transform="matrix(0.98, 0.16, -0.16, 0.99, 1232.04, 2820.79)">G</text><text class="cls-2" transform="matrix(0.94, 0.31, -0.32, 0.95, 1359.97, 2845.59)">E</text><text class="cls-2" transform="matrix(0.88, 0.45, -0.46, 0.89, 1471.66, 2886.13)">E</text><text class="cls-2" transform="matrix(0.82, 0.56, -0.56, 0.83, 1576.8, 2944.29)">’</text><text class="cls-2" transform="matrix(0.74, 0.66, -0.67, 0.75, 1642.73, 2990.59)">S</text><g id="Artboard-Copy"><circle id="Oval" class="cls-3" cx="1149.17" cy="1175.99" r="1074.82"/><g id="Group-210"><g id="Group-3"><g class="cls-4"><path id="Fill-1" class="cls-1" d="M141.11,1158.18c0-553.05,448.33-1001.38,1001.38-1001.38S2143.88,605.13,2143.88,1158.18,1695.54,2159.57,1142.49,2159.57,141.11,1711.23,141.11,1158.18"/></g></g><g id="Group"><path id="Fill-84" class="cls-5" d="M893.32,1108.09c-1.24-2.37-10.45-5-11.68-7.39-5.36-21.13-20.75-28.1-33.4-47.44-8.67-13.25,18-44.35,25.67-56.1,26.32-40.59,59-74.21,107.67-87.79,4.38-1.23,8.14-5,11.93-8,32.69-25.31,66.63-47.57,110.24-47.14,2.69,0,5.76-.33,8-1.63,93.6-54,189.64-44.34,286.59-11.24.42.14.54,1.13,2.28,5.07-54.75-2-107.41-22-161.48-9.33,2.59,9.33,14.14,8.34,15.89,19.92-26.11-10.76-51.56-17.37-78.93-11.88-17.76,3.56-35.49,6.42-49.81,18.39-9.33,7.79-21,4.9-31.35,8.57-31.29,11.12-61.54,24.49-91.77,38.15-12.13,5.48-20.28,14-27,24.2-8.07,12.23,5.54,19.13,7.6,28.06,2.47,10.71.81,25.34-7.36,36.39-2.63,3.55-11.27,5.89.64,11.9,6.94,3.5,11.57,17.75-2,26.26-10.4,6.5-21.69,12.21-31.33,24.82,16.61-2,20.45,9.67,18.87,19.4-2.55,15.77-16.53,32-29.31,29.25-13.86-3-28.2,12.57-39.91-2.46"/><path id="Fill-86" class="cls-5" d="M848.66,496.11c-5-11.67-15.08-15.68-26.61-17.44,17.25-18.07,34-36.7,51.89-54.07,24.53-23.75,47.32-26.74,74.87-6.78,24.14,17.49,45.82,15.07,69.45.93,27.23-16.28,51.61-37.27,83.9-45.13,22.83-5.55,40.95,0,58.07,13.9,13.5,10.94,26.67,22.31,40.41,32.92,24.61,19,50.38,34.16,83.81,29.8,19.19-2.51,37.06,3.27,52,16.28,5.07,4.39,8.28,10.15,4.83,16.08-2.94,5-8.79,5-14.9,3.86-21-4.08-42-8.12-63.23-10.8-26.81-3.4-47.64-18.36-68.46-33.4-12.38-8.95-23.62-19.47-36-28.48-27.27-19.93-40.27-20-68-1.43-22.51,15.06-44.44,30.89-68.8,43.16-28.16,14.19-54,13.45-80.27-5-27.54-19.34-35-17.28-58.25,7.4-11.81,12.55-18.8,29.49-34.78,38.19"/><path id="Fill-88" class="cls-5" d="M1454.72,1544.41c-22.55,27.36-49.81,46.06-86.91,44.2-30.27-1.51-57.93-12.34-85.06-25.38-10.2-4.9-19.3-18.17-33.62-8.36-1.79,1.22-3.29-.16-4.54-2.27-7.58-12.69-7.67-12.63-20.52-4.69-.58-8,5.59-25.31-12.72-12.39-1,.69-4.37-.43-5.42-1.7-24.4-29.36-49.75-37-85.69-25.53,3.69-14.87,12-21.36,30-22.77,31.44-2.46,60.18,7.45,88.38,19.7,33.66,14.61,64.49,35.52,100.26,45.43,13.41,3.72,27.06,7.13,41.06,4.73,36.33-6.25,69.55-30.76,56.46-84.07-5.29-21.53.49-39.65,11.23-57.35.92-1.52,3.29-2.15,7.71-3.25-24,36.41,4.65,67.25,7.81,100.71,10.41,16.29,8.54,23.57-8.48,33"/><path id="Fill-90" class="cls-5" d="M1432.52,861.68l-8.2,3.83c-6.64-28.7-30.22-38.92-52.72-53.61-29.51-19.25-43-52.65-52-86.51-2.62-9.91-5-19.91-6.89-30-3.86-20.45-14.16-35.37-34.86-41.9-2.4-2.75-2.63-5.48.06-8.19l36.45,12.19c4.36-20.6-5.73-40.75-.8-61.14,4.67-19.33,8.19-38.71,25.2-52.53,5.5,8.11-1.4,14-1.22,22.4,7.34-1.71,14.42-3.32,21.48-5,13.09-3.11,16.9-10.73,11.46-23-5.86-13.23-12.34-26.27-17-39.92-1.85-5.46-5.39-14.85,4.24-17.44,8.45-2.27,5.88,7.26,8.66,11.18,7.21,10.16,14.43,20.33,21.18,30.79,9.68,15,17.68,31.07,6.23,48.16-11.58,17.3-29.87,26.49-50,24-13.74-1.72-13.88,3-12.53,12.15,1.69,11.57,3.41,23.22,6.46,34.48,5.43,20.1,6.22,39.46,4.36,60.74-2.37,27.2,15.28,50.61,32.88,71.53,10.84,12.88,25.81,20.86,38.7,31.27,12.55,10.15,31.1,20.22,12.15,41.13-5.76,6.36,5.78,9.56,6.62,15.4"/><path id="Fill-92" class="cls-5" d="M1408.46,1743.38l-5.61-11.46c4.4-7.13,13.72-12.63,8.63-23-3.33-6.75-5.47-13,1.93-18.28,8.7-6.21,14.36.82,20,5.33,23,18.3,47.6,33.6,76.26,41.55,23.87,6.63,48,7.68,72.25,2,25.9-6,47.14-16.94,58.94-43.53,8.86-20,19.27-39.73,33-57.36,7.79-10,16.78-17.57,32.85-23.23-6.62,16.8-21.23,23.88-26.7,42,24.81-10.28,45.61-32.33,74.4-15.35-45.62-3.2-63.52,29.12-83.69,59.75-58,88.11-165.36,98.73-248.44,24.49l-13.86,17.06"/><path id="Fill-94" class="cls-5" d="M1158.66,946.77c26.19,12,53.95,21,78.63,36.08,16.89,10.3,32.8,21.28,44.88,36.57,3.67,4.63,7.41,9.32,2.9,14.83s-11,5-16,1.58c-21.55-14.67-53.17,4.29-72.14-16.27-6.91-7.5-13.18-8.31-17-4.21-13.48,14.41-32,7.16-49,5.34-11.51-1.24-22.27-2.38-26.38,11.44-1.69,5.65-6.54,9.42-13.27,9.17-8-.29-11.62-5.88-13.22-12.08-3.31-12.87-7-26.05,8.33-35.33,8-4.84,9.91-14.77,7.55-20.09-3-6.66-12.85-.4-20.45-.46,2.46-17.11,31.43-7.27,30.47-26.68,15.26-10.33,41.82-10.27,54.68.11"/><path id="Fill-96" class="cls-5" d="M1478.25,949.49c-18.3,13.31-38.23,24.31-54.94,39.88-11.44,10.65-22,21.73-29.08,35.82-2.13,4.27-4.32,8.6-.09,12.51s7.54,13,10.91,9.52c14.36-14.83,37.52-15.2,49.08-34.5,4.21-7.05,14.84-11.73,18.35-8.89,12.35,10,24.82,6.12,37.51,2.39,8.62-2.53,16.67-4.88,21.79,5.87a9.92,9.92,0,0,0,11.45,5.74c6.07-1.3,8-6.35,8.38-11.63.69-11,1.6-22.2-11.41-27.76-6.78-2.9-9.69-10.76-8.65-15.42,1.31-5.83,9.76-2,15.57-3.08-4.33-13.66-25.06-1.78-27.1-17.77-13.14-6.42-33.43-2.87-41.77,7.32"/><path id="Fill-98" class="cls-5" d="M1799,1628.62c-20.06,8.21-39.78,7.42-54.18-7.41-24.91-25.65-51.66-16.08-75.78,2.53a22.87,22.87,0,0,0-4.59,4.17c-30.58,41.22-71.46,47.5-118.52,35.55-23.77-6-48-6.84-71.62,2-10.37,3.88-13.15,1.51-14.82-10.8-2.46-18.21,8.33-40.81-14.4-54.09-3.59-2.1-2.27-6.14,1-8.46,5.76-4,12.31-4,17.43.09,9.15,7.38,12.65,18.18,12.75,29.36.12,12.59,2.83,17.25,16.81,12.27,18.8-6.7,38.48-2.51,57.66.08,33.18,4.46,62-1.72,88.7-24.34,36.6-31,70.43-30.42,106.27,0,16.07,13.61,33.88,17.35,53.24,19.09"/><path id="Fill-100" class="cls-5" d="M1451.81,1544.15l8.67-33c29.53-55.6,66.72-107.88,78.19-171.34,5.29-29.28.49-56.59-17.49-81.18-13.32-18.2-20.82-39.2-29.68-59.8,9.1-4.78,12.57,1.14,16.32,7.52a441.33,441.33,0,0,0,37.91,55.29c27.75,34.08,24.49,72.3,14.84,111.15-6.92,27.87-19.81,53.29-33.69,78.43-23.81,43.14-54.61,82.85-67.1,135.3-11.16-15.59-3.94-30-8-42.36"/><path id="Fill-102" class="cls-5" d="M659.73,828.5c-8-4.91-14.32-7.74-19.27-12.18-6.08-5.44-13.5-11.94-10.34-21.16,3.53-10.26,13.52-11.2,22.75-10.44,19.68,1.61,36.89,10.71,57.13,21.39-9.18-28.25,15.76-18.64,26.9-27.25-8.57-8.78-19.59-10.77-28.78-15.77-8.15-4.44-15.36-9.46-18-19-1.52-5.57,2.1-9.66,6-6.5,21,17.05,51.65,11.39,71.17,31.49,4.79,4.93,11.3,8.19,16,13.22,6.37,6.89,15.72,13.85,10.58,24.89-4.35,9.34-14.17,9.7-23.44,9.49-3.36-.07-6.74.62-10.32,1,.94,7.22,10.65,11.89,5.31,19.15-5.72,7.77-14.92,6.49-23.08,5.11-15.93-2.69-29.71-11-44-18.06-6.82-3.38-12.75-4.57-8.49,6.54,4.6,12-4.77,12.9-11.76,14.4-18.44,4-37.23,2.87-55.93,2.64-3.94,0-9.41.38-9.33-5.4.07-4.77,5-6.47,9-7.23,11.53-2.18,23.15-3.88,37.86-6.27"/><path id="Fill-104" class="cls-5" d="M754.73,998.25c-2.84,2.54-.88,9.4-6.58,8.58-2.18-.31-3.69-5.09-5.51-7.83,4-10.39-4.44-8.38-9.63-9.11-17-2.41-33.13,3.46-49.66,5.53-9.65,1.21-19.35,2.2-29.05,2.7-15.28.78-25.49-6.33-29.16-21-3.86-15.41,2.16-27.41,16.25-34.35,22.79-11.24,47.46-15.44,72.73-16.72,8-.41,16.83,2.77,23.37-5.18,1.61-2,7-2.86,7.07-.63.43,23.2,29.42,11.48,29.15,17.28-1.12,24.36,12.88,19.3,28,16.32-3.71,13.74-7.16,26.92,14.57,19.72,4.21-1.39,10.45,3.47,7,6-12.35,9.11-4.65,17.42-1.54,26.52,1.76,5.15,3.11,11.57-3.44,14.5-5.75,2.58-9-2.83-11.5-6.54-10.14-15.33-24.71-26.1-38.46-37.74-21.66-18.33-46.14-24.78-74-17.1-16,4.43-33.78,3.55-51.59,16.23,22.93,5,42,1.36,60.87.5,12.64-.58,25.18-1,36.92,4.36,7.62,3.5,15.25,7.5,14.2,17.93"/><path id="Fill-106" class="cls-5" d="M763.18,721.13c-11.16-10.27-23.23-20-28.47-34.83-1.88-5.34-6.84-11.57-1.49-17.49s11.38-2.25,17.15-.06c4.84,1.84,9.75,3.48,15.86,5.65-9.49-23.73-6.77-26.71,17.59-23.84,28.74,3.38,52,19.52,80.51,33.09-26.13,8.66-42.45-17.42-66.72-11.37,20.45,10.42,38.22,21.72,50,39.87,5.21,8,12.91,18.26,6,26.45-7.8,9.3-18,.48-25.7-4.28-16.4-10.18-32-21.64-48-32.51-6-4.1-11.72-9.06-23-10.29,10.65,14.22,23.27,21.05,34.34,29.63,13.69,10.62,27.52,21.08,32,39.37,1.38,5.62,3,11.16-1.36,15.64-5,5.18-10.66,1.28-15.27-.93-13.17-6.32-23.92-16.15-34.7-25.83a35.38,35.38,0,0,1-2.41-7.86c-.9-7.17-4-13.66-6.33-20.41"/><path id="Fill-108" class="cls-5" d="M1240.41,1690.12c-6.28.49-8.77,1.49-10,.67-71.6-46.66-153.76-65.51-234.91-87-36.19-9.57-72.51-18.69-108.75-28.09a85.9,85.9,0,0,1-13.78-4.46c-6-2.7-10.78-7.59-10.83-14-.05-7.41,6.88-9.36,12.88-11.47,16.23-5.71,33.08-3.12,49.66-3.44a402.89,402.89,0,0,1,41.68,1.63c4.93.43,12.37.51,12.26,8.24-.11,7.89-7,7-12.39,7.47-15.22,1.35-30.44,2.66-50.34,4.4,59.94,17.28,115.84,32.07,170.84,49.63,53.81,17.19,109.79,31.31,153.72,76.43"/><path id="Fill-110" class="cls-5" d="M1471,1305c-.27-5.31-.68-9.49-.64-13.66s.53-8.94,5.75-9.62c3.83-.5,6.52,2.68,7.43,6.13,6.5,24.63,24.73,47.39,8.5,75.45-6.32,10.93,3.73,26-3.88,38.27-2.71,4.36-3,12.53-10,11.26-7.26-1.32-2.88-7.83-2.48-12.15,1.51-16.32-12.11-14.42-21.15-17.09-31.64-9.34-54.68-28.51-68.92-58.24a27,27,0,0,1-2.39-16.24c1-6.37,3.06-12.65,9.32-15.22,7.2-2.95,10.42,3.39,15.32,7.36,13.44,10.87,26.45,21.28,46.32,21.83,17.36.48,20.18-4.92,16.81-18.08"/><path id="Fill-112" class="cls-5" d="M1133.59,1152.86c-6.08,9.78-14.36,9.67-21.32,11.88-13.79,4.38-25.44,11.73-34.11,23.19-6,7.88-15.43,15.11,2.23,22.51,10.5,4.39,7.14,15.67-1,20-23.46,12.39-28.91,39.1-24.75,55.12,8.94,34.48-6.41,70.68,11.6,103.32,3.09,5.6,7.81,14.72-2,17.2-7.21,1.83-7.86-8.25-9.94-13.58-9.15-23.47-15.73-47.36-9.07-72.82.84-3.19,2.25-7.63.79-9.81-18.44-27.53-7.37-54.67-4.08-83.77,3.27-28.9,14.9-47.08,36.07-63.16,16-12.19,33.7-15.41,55.54-10"/><path id="Fill-114" class="cls-5" d="M793.39,1596.48c4.85,9.87-1.34,14.51-8.4,18.47-6.17,3.45-12.39,7.16-15,14.09-2.48,6.67-4.21,14.74,1,20.36,5,5.4,10.24-1,14.73-3.27,33.75-17.43,67.66-5.61,101.51-.92,3.5.49,6.64,2.7,5.87,7.14-.83,4.79-5,4.24-8.22,4.21-14.51-.14-29-.66-43.54-.89-16.8-.27-32.41,1.83-46.7,13.35-25.25,20.35-35.71,20-49.18,2.06-15.43-20.6-13.13-51.64,5-68,9.93-9,21.42-12.64,34.48-11.22,4.91-2.57,6.86.67,8.45,4.6"/><path id="Fill-116" class="cls-5" d="M969.71,585.72c-.21-18.35-17.72-18.2-32-26.83,18.33-6.16,29.55.09,38,10.9,10.62,13.58,19.37,28.57,29.54,42.52,5.73,7.86,13.09,16.44,23.78,13.79,9.25-2.29,9.48-13.17,10.68-20.91,2.66-17.11,8-30.8,28.36-32.28,1.88-.13,5.21-1.38,5.28-2.3,2.71-34.6,44.92-40.5,50.82-76.72,9.06,13.78,3.57,21.19-.16,28.51-5.48,10.76-15.58,17.57-24,25.7-7.83,7.59-12,12.33-2.62,23.27,12.31,14.43,6.87,25.62-12.78,27.67-13.75,1.44-20.79,7.72-26.42,19.34-13.5,27.87-38.55,29.76-58.57,5.37-6.07-7.39-8.24-17.8-17.74-22.5-8-2.19-15.14-5-12.23-15.53"/><path id="Fill-118" class="cls-5" d="M834.36,1172.61c-6.16-6.69-10.2-14.93-7.51-20.79,6-12.94-2.59-19.12-7-29.21-8.87-20.44-18.83-16.11-32-7.64-6.27,4-13,6.82-18.67.76-6.2-6.61-.82-13.21,3.41-18.24,14.18-16.82,32.49-24.75,54.86-22.39a34.06,34.06,0,0,1,8,2.11c6.7,2.48,34.48,50,33.23,56.79-.92,5-3.08,9.8-8.74,10-18.08.81-24.84,11.18-25.64,28.56"/><path id="Fill-120" class="cls-5" d="M951,610.65c-15.93-12.32-29.23-28.85-55.32-34.77,14.38,12.57,25.1,21.65,35.5,31.11,10.25,9.33,19.73,19.51,24.22,33,3.14,9.5,4.26,19.69-3.82,27.28-8.47,7.95-19.71,9-30.79,9-4,0-6.11-2.64-6.08-6.74,0-5.67,3.56-9.27,8.24-10.82,21.14-7,13.26-19.37,4.49-29.76C917.28,617,905,606.66,893.94,595.29A177.66,177.66,0,0,1,879.32,578c-5.19-6.92-9.27-15.06-2.65-22.7,7-8.11,14-.13,20.18,2.81,22.38,10.68,44.09,22.55,59.22,43.43,2.52,5.41,2.66,9.48-5,9.13"/><path id="Fill-122" class="cls-5" d="M656.1,908c-16.45-.21-28.71,5.94-41.74,9.46-16.47,4.46-29.44-1.37-35.32-15.7-6.34-15.45,5.33-24.8,18.28-30.68,23.6-10.71,46.07-4.91,66.07,8.57,16.4,11.06,30,16.25,40-8.83,5.53,10.85,11.75,18.73,3.24,27.4-8,8.2-18.22,8.62-28.49,4.36-8.16-3.38-15.78-8-24-11.13-7.6-2.86-15.6-5.35-23.64-6.3-10.42-1.22-20.56,1-28.47,8.43-2.28,2.16-1.69,5,.88,6.77,8.77,5.92,18,4.67,27.57,1.74,7.8-2.39,15.93-4.51,25.68,5.91"/><path id="Fill-124" class="cls-5" d="M1175.66,904.22c-17.06-2.7-34.12-2-51.18-.11-6.52-1.22-13.63.29-19.82-4,22.5-12.84,78.74-13.22,116.8-2.56,37.4,10.48,66.13,34.53,95.15,58,32.07,26,65.17,42.94,110.72,15.28-19.59,23.18-48.33,29-74.58,19.07-16.45-6.22-30.2-16.67-43.64-27.8-28.89-23.93-58.39-46.68-96.32-55.62-12.56-3-24.71-2.46-37.13-2.3"/><path id="Fill-126" class="cls-5" d="M1216.08,609.35c-3.23,2.47-6.85,7.34-9.6,6.9-5-.8-3.7-7-3.19-10.46,3.11-21.13-6.64-32.32-26.16-40.84-32-14-40.58-72.65-15.91-97.54,6.22-6.28,12.32-6.3,17.78.33a62,62,0,0,1,8.69,14.06c2.72,6.12,8.13,14.22,2.6,19.11-7.55,6.67-8.79-8.56-17.28-7.48-7.28,20.37-5.12,38.6,10.84,54.86,9.93,10.11,22.5,18.15,27.69,32.2,10.77,8.22,5.33,18.89,4.54,28.86"/><path id="Fill-128" class="cls-5" d="M1514.14,1703.73c18.19,8.28,18.19,8.28,60.06-8.1-4.35,14-17.12,24.93-33.76,27.8-17.67,3-34.84,0-45.14-15.53-7.61-11.48-14.73-16.84-28.18-13.33-5,1.31-11.93,2-13-6.3-.8-6.27,4.08-9,8.81-10.17,19.71-5,39.65-8.89,60.1-6.09,8.49,1.17,18.12,3.73,19.17,13.57,1.31,12.19-10.15,10.93-17.73,13.29-2.58.8-5,2.29-10.33,4.86"/><path id="Fill-130" class="cls-5" d="M1082.74,1658.64c26.78-1.77,52.3,1.54,74.75,16.93,4.52,3.1,9.48,6.41,6.19,12.7-3.11,6-8.57,6-14.13,3.49-37.82-17-79.48-14.3-119.34-20.8-9.63-1.57-18.69-3.19-25.69-10.34,3.56-3.76,7.59-3,11.61-2.32,22.19,3.13,44.39,2.28,66.61.34"/><path id="Fill-132" class="cls-5" d="M813.28,620.1c-1.18-3.91-1.3-4.59-1.58-5.18-4-8.42-18.92-12.93-13.62-23.49,5-10,17.66-2.82,26.88-3.8,6.1-.65,12.91-.19,18-2.87s8.2-8.21,11.57,1c2.52,6.93-.74,11.38-6.79,12.51-8.09,1.52-16.48,1.38-24.78,2,.09,1.65-.25,3.2.29,4.31,4.13,8.33,17.1,14.86,11.32,24.83-6.15,10.6-19,2.54-28.69,3.77-9.34,1.17-23.91-11-27,9.92-.55,3.76-6.94,1.73-10.88-.38-5.16-2.77-9.39-6.13-10.39-12.14-1-5.83,2.46-8.45,7.48-10.77,15.65-7.2,31.32-1.64,48.12.28"/><path id="Fill-134" class="cls-5" d="M837.63,1215.82c9.77-5.23,16.45,3.44,23-1.58-17.64-28.31-11.67-50,16.91-61.53,3.08-1.24,6.3-4,9.47-1s1.55,6.58-.33,9.41c-6.74,10.15-10.64,20.24-6.07,32.77,4.24,11.58,8.61,26.23-4.14,33.69-13.77,8.06-25.89-2.31-38.89-11.75"/><path id="Fill-136" class="cls-5" d="M1229.28,593.82c17.17-26.19,13.85-54.73,11-82.83-.82-8.09-3.36-15.7,6.09-18.48,9.81-2.89,18.16,1.8,21.73,11.24,5.05,13.33,4.88,27.78-2.67,39.52-8.74,13.62-17.55,26.76-22.47,42.33-1.42,4.51-5.39,9.52-13.69,8.22"/><path id="Fill-138" class="cls-5" d="M1131.37,878.56c42.35-32.56,140-9.89,164.67,38.14-51.92-33.3-103.22-57.39-164.67-38.14"/><path id="Fill-140" class="cls-5" d="M1071.28,1637.32c-61.51-18-123-36.34-186.84-44.25-27.29-3.39-33.66-10-32.1-36.94,1.65-28.69,19.15-43.15,47.16-38.44,53.42,9,106.78,18.32,157.55,38.18,4.82,2.19,5.66-.3,5.17-4.36L904.7,1468.84c5.79,16.79,20.77,19.51,28.06,32.93-18.75-3.41-35-6.76-51.42-9.18-8.51-1.25-7.83-5.69-6.27-11.74,1.4-5.44,9.29-12.8,1.8-16.06-8.24-3.58-9.18,8.08-13.67,12.69-1.84,1.9-2,5.47-3.87,7.3-9.47,9.25-22.35,7.64-33.49,7.38-10.24-.24-2-9.79-3.22-15-.75-3.29.2-7.32-4.07-8.62s-6.58,1.89-8.39,4.69c-6.8,10.51-14.95,20.56-19.43,32-4.88,12.48-1.63,22.27,15.54,17.88,11.58-1.77,27-8.91,33.86-4.05,10.76,7.61-5.8,19.79-4.46,31.08.08.67-.26,1.43-.09,2.06,8,29.07-5.34,40.84-33.32,40.69.83,8.23,12.45,11,11,19.72-2.75,16.92,5.24,14,12.7,6.42,9.48-9.65,20.28-11.07,32.42-9.76,20.8,2.25,41.86,3.2,62.33,7.17,48.54,9.43,96.77,20.45,145.21,30.4,4.53.93,11.91,5.17,14-3,1.46-5.66-5.2-5.54-8.7-6.57"/><path id="Fill-142" class="cls-5" d="M1149,1098.56c44.08-22.43,101.31-8,127,34-36.38-27.86-75.7-38-119-23.92-10.13,3.22-12.19-.66-8-10.07"/><path id="Fill-144" class="cls-5" d="M782.68,1125.87c-1.72,33.2,12.27,60.41,29.39,86.68,7.9,12.11,16,24.31,22,37.43,5.77,12.48,6.06,25.31-11.8,36.12,9.06-36.83-12.56-59.1-27.58-84.09-14.12-23.48-23.53-47.93-12.05-76.14"/><path id="Fill-146" class="cls-5" d="M806.33,1528.26c9.55-4.33,15.64-.94,12.79,9.65C814,1557,812,1577.84,797.44,1593l-3.74,4.6-8.34-4.59c-5.14-25.87,7.92-45.33,21-64.79"/><path id="Fill-148" class="cls-5" d="M737.14,722.3c-11.48-3.28-22.93-6.65-34.44-9.8-12.86-3.52-25.17-2.94-36,5.76-4.57,3.65-9.51,8-14.31,1.55-4.36-5.81.71-10.63,4.58-14.36,6.91-6.64,16-8.57,25.3-9,23.21-1,44.4,5.57,64,17.5.58,6.69-1.74,10.24-9.16,8.31"/><path id="Fill-150" class="cls-5" d="M1149.17,1122c6.07-5.47,10.1-1.55,14.09.76,21.32,12.35,42.53,23.25,68.64,14.81,8.54-2.76,17.65,1.29,24.08,9.25-39.43,8-77.93,13.63-106.81-24.82"/><path id="Fill-152" class="cls-5" d="M1216.08,611.83q-2.3-14.57-4.6-29.12c9.61-26.61.9-54.68,6.36-82.15,16.15,19,14.87,82.29-1.76,111.27"/><path id="Fill-154" class="cls-5" d="M1153.38,1361.76c-15.29-20.85-24.66-39.13-21.35-61.55,1.37-9.28,4.91-17,13.88-21.57,3.17-1.61,7.22-2.36,9.91.37,1.58,1.61,2.89,5.93,1.91,7-19.28,21.08-7.77,43.44-3.52,65.53.37,1.92-.29,4-.83,10.21"/><path id="Fill-156" class="cls-5" d="M1314.09,1258.1l-3.64,7.29c-5.13-10.54-10.72-18.69-23.15-7-2.81,2.64-7.47,3.61-11.45,4.76-6.57,1.91-15.83,6.2-18.94-1.41-4.46-10.92,8.33-9.06,13.34-10.58,18.42-5.57,30.64-21.18,50.27-29.58-.6,14-10.88,24.32-6.43,36.54"/><path id="Fill-158" class="cls-5" d="M641.8,930.05c-4,14.68-14.81,14.91-23.38,17.55-12.5,3.85-25.4,6.38-34.31,17.47-2.75,3.43-6.32,6.88-10.35,3.89-4.37-3.24-3.41-8.93-1.91-13.63a16,16,0,0,1,9.54-10.48c19.08-7.18,38.73-11.63,60.41-14.8"/><path id="Fill-160" class="cls-5" d="M1284.91,1110.3c-26.72-13.94-38.37-54.63-82.33-37.33,4.78-13.85,14.52-18.22,24.37-15.15,27.56,8.59,45.48,28,58,52.48"/><path id="Fill-162" class="cls-5" d="M953.34,611.49l4.76-8.89,10.29,7.5c.74-8.44-4.58-13.45-7-19.49-1.07-2.72-4.16-6.51.83-7.65,2.2-.51,5.14,2.52,7.75,3.94,4.38,4.58,9.3,8.71,11.34,15.18-5.7,7.53,4.35,11.06,4,17.35-.24,5.17,3.79,11.35-1.12,15.27-5.27,4.19-9.95-.74-13.58-4.25-6.13-5.92-11.6-12.6-17.35-19"/><path id="Fill-164" class="cls-5" d="M1126.91,1720.53c-2.07,3.09-4.46,5.3-8.4,3-22.8-11.53-49.33-14.45-69.48-32.43,26.63,8,58,2.31,77.88,29.43"/><path id="Fill-166" class="cls-5" d="M1020.71,589.58c-7.78-26.27-34.25-36.39-31.47-64.43.33-3.29-2-7.55,2.56-8.74,5.07-1.33,7.61,2.42,7.37,7.18-.67,13.91,7.92,21.88,16.43,29.92,9.34,8.83,11.92,18.92,5.11,36.07"/><path id="Fill-168" class="cls-5" d="M1078.45,478.31c5.62.33,7,2.86,5.81,7.3-3.26,12.64-33.37,29.92-44.56,25.32-6.27-2.57-12.55-11.48-5-13.28,16.27-3.9,30.65-10.93,43.8-19.34"/><path id="Fill-170" class="cls-5" d="M1138.9,1106.06c-21.19,13.41-39.89,7.28-62.71,7.35-3.06,0-5.44-2.37-4.8-5.47,1-5,5.48-5.81,9.8-6.07,21.2-1.28,38.2.06,59.08,3.74Z"/><path id="Fill-172" class="cls-5" d="M1402.85,1524.92c-5.14,11-13.28,17.23-24.24,19.09-7.17,1.22-11.58-2.74-11.35-10.27.19-6.47,5-15.18,9.94-10.91,9.07,7.91,18.48-11.94,25.65,2.09"/><path id="Fill-174" class="cls-5" d="M1307.89,1138c-3.48-9.45,6.5-10.69,10.17-15.47,12.91-16.86,9.14-34.71,3.52-54.46,20.29,20.46,19.18,38.57-2.54,68.87-3.47,3-7.23,2.87-11.15,1.06"/><path id="Fill-176" class="cls-5" d="M1280.46,641.89l-.06,7.77c-20.93-5.86-37.09-18-51.12-33.38,19.37,4.65,35.08,15.46,51.18,25.61"/><path id="Fill-178" class="cls-5" d="M733,722.72l9.39-8.53,17.33,8.25c9.4,5.08,22.07,6.82,22.23,21.32l-8.63,3.81L733,722.72"/><path id="Fill-180" class="cls-5" d="M1175.87,608.5c-1.76,6.41,2.63,17.06-8.34,16.67-8.92-.32-8.61-10.6-9.31-17-.74-6.91,1-16.44,9.77-16.35,10.63.11,6.06,10.67,7.88,16.7"/><path id="Fill-182" class="cls-5" d="M1142.49,615.54c-.7,4.62,1.4,12.44-4.55,11.83-10.33-1-7.55-11.13-8.6-17.92-.74-4.8.36-11.9,6.15-10.87,9.43,1.67,5.33,11.08,7,17"/><path id="Fill-184" class="cls-5" d="M1055.7,1555.27l4.84-4.36c13.26,2.15,22.56,10.42,28.54,24.48l-33.38-20.12"/><path id="Fill-186" class="cls-5" d="M1089.08,1128.28c10.18-8.25,21.28-7.41,35.61-5.82-12.69,10.83-24.26,8-35.61,5.82"/><path id="Fill-188" class="cls-5" d="M1340.54,1220.65c15.68-8.89,23.67,1.73,33.38,2.15-10.34,10.83-19.21,3-33.38-2.15"/><path id="Fill-190" class="cls-5" d="M1082.41,1655.81c-22.29,5.07-44.54,6-66.76-.31l66.76.31"/><path id="Fill-192" class="cls-5" d="M1299.64,1133.69l11.43-1.14c8.62,5.59,4.46,10.94-.37,16.14-2.61,2.81-6.18,5.23-9.59,3-7.81-5,3.47-12.34-1.47-18"/><path id="Fill-194" class="cls-5" d="M913,1430.75c-11.12-.44-24.07,2.35-32.9-2.4-11.58-6.22.83-19.18-1.51-29.59-2.58-11.51-3.62-24-9.53-33.75-13.51-22.36-9.59-37.73,16.84-48.24-.86,42.46,20.46,76.83,45.79,114-9.24,0-14,.15-18.69,0m399.31,211.41c-4.55-1.59-9.32-2.58-14-3.84-35.81-9.66-69.82-23-100.34-44.76-35.26-25.16-65.14-56.5-98.78-83.46-21.63-17.33-44.9-32.57-58-58.56-5.39-10.7-16.18-19.73.58-30.12-21.21-6-21.21-6-9.94-21.45-4-5.58-26.61.89-11.73-17.27,2-2.38,1.1-6.1-1.86-6.89-14.05-3.71-10-16.78-13.36-25.7-3.19-8.38.8-18.84-9.21-32.09-2.93,55.5,13.26,100.27,37.18,145.83-11.61-5.2-19.58-11.11-28.15-12.18-36.44-4.54-54.29-28.78-71.23-58.05-18.48-31.94-28.09-63.92-24.7-100.91,3.8-41.44,4.84-83.14,6.73-124.75.26-5.63,2.54-12.15-3.37-17.6-3.9,2-4,5.37-4.41,8.67-4.23,30.92-10,61.72-12.33,92.78-2.19,28.6-19.11,45.08-41.3,58.16-15.39,9.07-30.85,2.89-33.7-14.29-3.63-22-14.75-40.07-25.09-58.9-19.8-36.07-36.51-72.43-35.85-115.69.46-29.85,16.11-43.88,39.41-55,23.14-11,41.56-2.62,58.52,13.48,6.62,6.29,12.83,12.7,17.29,20.69,3.54,6.33,7.3,12.38,16.21,8.08,2.39-4.27,2.35-7.26-3.73-7.09-5.64-.94-4.24-6.27-6-9.6-13.89-25.84-32.83-50.57-62.83-51-31.94-.47-44-22.32-61.85-39.59-4.25-3.42-7.82,3.95-12.06.75-12.91-4.8-24.69-5.11-32.22,8.9-2.79,5.19-7.62,5.9-12.33,6.26-19.54,1.5-38.05,7.71-57,11.76-13.86,3-28.7,4.2-40-5.42-20.57-17.51-39.86-36.54-59.48-55.16-3.88-3.69-8.95-8.29-4.21-14.26,21-26.41,21.33-58.77,28.49-89.67,16.23-70,38.48-138.49,62.59-206.35,23.31-65.59,62.11-112.17,135.71-121.27,7.46-.93,14.72-4,21.9-6.53,22.21-7.88,45-14.82,61.24-33.51,1-21.39-2.65-23.79-26.65-17.39-33.15,16.66-69.32,24.21-104.62,34.45-43.55,12.63-76,38.44-97.09,79.06-37.37,72-54.24,150.83-77.52,227.52-4.51,14.88-5.77,30.35-3,45.29,4.9,26-2,47.54-19.43,66.94-7.3,8.14-12.81,17.87-19.14,26.87V976q36.09,34.4,72.17,68.8c12.37,11.77,25.72,19.27,44.22,19.31,35.86.06,68.36-11.88,100.56-24.77,15.36-6.14,27.66-5,40.89,4.24,8.14,5.72,8.56,9,.39,14.7-22.08,15.49-28.2,37.87-28.45,63.68-.34,33.91,10.13,64,27.89,92.25,20.14,32,45.37,61.37,49.79,101.39,1,9.32,8.62,20.05,18.55,20.67,18.94,1.2,21.7,14.37,25.06,27.62,3.24,12.75,5.74,25.72,7.75,38.73,2.64,17.1,1.51,31.9-21.85,32.55-5.05.14-10.24,4.13-14.88,7.09s-14.44,3.68-11.3,12.07c3.21,8.54,10.78,2.54,16.19,1.39,68.15-14.52,132.75-3.46,194.14,27.63,42.91,21.73,76,55.89,109.46,89.39,35.41,35.45,75,64.32,124.94,76,19.77,4.62,40,7.85,61.17-1.29-3-2.74-4.28-4.68-6-5.28"/><path id="Fill-196" class="cls-5" d="M1353.4,1735l-26.49-16.86c23.81-8,25.7-6.69,26.49,16.86m89.78-121.44c-5.46-1.68-8,3.92-10.56,8.06-13.49,22-33.55,29.18-58.39,26.37-8.88-1-17.92-.69-26.89-.85-14.6-.25-23,4.49-27.89,20.78-13,43.19-43.19,59.2-85.46,44.83-36.86-12.53-70.44-7.07-103.73,9.82-2.82,1-5.81,1.46-8.45,3-33.47,4.84-64.35-2.19-93-20-4.26-2.65-10.24-8.62-14.3-2.12-3.78,6,3.5,9.31,7.87,12.34,34.63,24,73.59,33.24,114.19,25.1,38.54-7.72,75-6.58,111.64,7.07,16,6,34.47,7.33,47-5.47,16-16.34,27.76-8.17,41,1.59,6.1,4.48,12,9.38,18.48,13.18,22.2,13,38.64,8.84,54.6-13.16,1.78-5.6-.35-9.3-5.57-11.5-8.52,4.07-12.25,18.15-25.77,12.5,16.8-16.49,16.59-32.56-.51-50.87-5.83,5.58.23,13.31-4.93,21.48-5.59-22.61-23.63-22.63-40.47-23.73.58-8.92,5.13-8.93,11.45-8.47a287.41,287.41,0,0,0,37.23.67c37.61-2.14,67.78-28.52,66.54-57.9-.18-4.38,1.43-11-4.09-12.7"/><path id="Fill-198" class="cls-5" d="M1309,1328.69c-8.35.62-16.71,1-27.28,1.55-16.82,2.46-33-2.91-48.5-14.45-11.6-8.63-7.87-14.76-.73-22.62,11.31-12.44,12.24,3.23,15.5,6.63,16.63,17.35,35.65,25.54,59.62,19.06,4.52-1.22,6.81.41,7.67,3.94,1.18,4.77-2.75,5.63-6.28,5.89m69.28-14.43c-.87-10.49-1-22.24-18.8-27-12.82-3.42-24.82,3.94-35.11-2.08-10.53-6.16-19-6.5-31.15-3.85-11.23,2.45-25.93,3-36.15-8.12-5.75-6.25-8.37-12.55-3.95-20.54,2.51-4.52,8.25-9.58,1.42-14.13-5-3.33-10.43,0-15.61,2.55-9.75,4.77-12.46,12.58-11.16,22.3,1.15,8.6-1.46,11.6-10.92,12.57-15.7,1.61-29.39,8.24-36.9,23.61-4,8.24-1,14.88,4.24,20.85,4.34,4.9,12.87,9.51,16.5,5.66,15.12-16,21.63-.78,30.27,6.68,10.48,9,22.6,13.21,37.46,13.42,13.44-2,27.85-5,42.41-6.24,15.29-1.36,30.79-.39,46.06-1.86,13.75-1.33,22.43-11.23,21.39-23.82"/><path id="Fill-200" class="cls-5" d="M1514.45,1185.08c-13.43,35.61-61,11.94-61,11.94-.79-1.18-6.35-10.29-7.1-11.5-.06-.22-.44-.44-.51-.66,15.15-.85,30.55-1.37,40.76-15.4,3.51-4.82,8.73-1.28,12.68,1.74,1-6-1.21-12.27,3.52-17.84,18.4-21.62,21.64-44.87,15.72-69.28l17.57-4.21c.89,53.49-21.6,105.21-21.6,105.21m-29.82-24.73c-6.64,9.08-15.72,15.07-24.59,10.24-6.57-3.57-.31-17-9.92-22.69,15.51-1.82,24.23,6.27,34.51,12.45M1469.54,1137c-20.33-10.52-43.32-3.63-52.84,7.7-1.89-6.79-7.89-22.14-10.17-41.87-1.34-8.72,3.27-19.65,2.69-25.87,9.63-13.46,31.11-20,52.2-22.13,4.77-.48,7-2.54,11.2-4.38,14.72-6.41,24.92,4.15,29.53,15.78,7.1,17.92,7.16,36.32,2.11,55-2.58,9.56-5.74,20.2-12.91,25.42-8.57,6.24-14.63-5.92-21.81-9.63m-174.8,18.37c-14.71,61.07-98,42.09-98,42.09l-7-6.14c-27.46-8.69-44.21-48.06-44.21-48.06-10.28-33.51-.1-72.19-.1-72.19,5.91-28.44,51.31-31.47,51.31-31.47,36.31-.79,61.93,7.33,61.93,7.33,26.18,5.41,37.53,11.06,37.53,11.06,12.42,50.28-1.43,97.38-1.43,97.38M1557.56,1044s-10.14-4.23-25-4.57c-5.33-16-17.74-42.4-29.9-54.4-4.2-4.15-8.05-6.88-7.43-13.31C1500,922.72,1470,892.05,1437,863c-4.52-2.5-8.47-3.77-8.21,3.85,9.65,12.66,19.61,25.11,28.91,38,32.25,44.77,21.45,95.23-25.78,121.47a31.58,31.58,0,0,0-9.43,7.63c-6.46,1.21-14.49,12.53-20.65,14.14,0,0-23.17-31.52-78.13-8.64,0,0-132.49-36.11-220.31-20.92,0,0-111.34,29.56-167.38,48.48l-16,3,.21,8.89s137.87-6.15,196.26-1.15c0,0-4.61,99.9,41,125.28,0,0,48.16,30.62,117.73,9.38,0,0,35.13-12.31,43.7-82.4,0,0,1.39-23.28,5.93-51.34,0,0,10.41-19.84,28.94-27,0,0,21.25-16.36,39.55,9.42,0,0,1.93-22.67,1.7-21.76-12.19,27.38-3.88,87.67,8.77,117.24,5.46,12.78,16.43,22.51,23.52,34.43,8.19,13.76,14.82,28.5,16.31,44.65,1.47,15.93-5.65,28.8-21.83,30.13-13,1.07-31.9,19.58-39.61-8.51-2.23-8.14-9.54-5.71-15.89-4.91-15.66,2-30.54,9.37-46.86,6.74-6.61-.23-7.26,2.46-3.58,7.26,26.11-.69,49.48,11.37,74.28,15.85,45.57,8.25,73.88-16.06,63.79-58.4-1.43-6-8-17.28-5.27-19.42,6.87.79,34.44,9.19,50.27,6.45,0,0,46.43-6.69,51.91-85.05,0,0,6.11-45.46,8.84-69.82,0,0,9-3.2-2-12"/><path id="Fill-202" class="cls-5" d="M1501.65,1212.15l-4.55-13.75c-3.19-12.83-3.49-39.15-3.49-39.15l-10.28,12.34c-2.18,18.76,6.16,41.87,6.16,41.87l13.5,1.43Z"/><path id="Fill-204" class="cls-6" d="M1508.57,1183.83c-15.66,37-65.22,9.74-67.6,10,15.1-.26,28.9.23,39.61-13.55,3.68-4.72,8.74-.94,12.54,2.27,1.28-6-.72-12.45,4.21-17.89,19.14-21.11,23.28-44.47,18.34-69.36l13.55-2.12c-1.21,54.07-20.65,90.7-20.65,90.7M1479,1171c-7,8.91-16.22,14.6-24.86,9.37-6.39-3.87.35-17.17-9-23.31,15.49-1.23,23.85,7.29,33.83,13.94M1467,1147.13c-21.34-14.65-41.55-9.16-51.46,1.91-1.62-6.93-4.33-11.55-7.38-24.27,20.68-6.11,51-13,75.53,5.07-13.83-29.24-28.09-34.95-78.06-20.9.23-13.87,1.35-19.06,2.77-24.25,10.11-13.22,30.66-19.9,51.72-21.24,4.76-.3,9.62-1.16,14.2-1.48,19.23-1.34,22.37,2.53,26.51,14.46,6.36,18.37,5,37.1-.7,55.75-2.95,9.56-6.5,20.18-13.84,25.17-8.76,6-12.63-5.65-19.29-10.22m-179,11.93c-17,61.12-96,34.72-96,34.72l-7.43-3.17c-27-9.86-42.09-50.29-42.09-50.29-8.9-34.25,2.73-72.92,2.73-72.92,7.93-26.34,53.51-27,53.51-27,36.14.64,60.07,7,60.07,7,25.82,6.5,34.67,12.51,34.67,12.51,7.5,51.43-5.45,99.08-5.45,99.08m271.59-119.79s-87-8.51-137.39,1.58c-6.48,1-12.85,2.12-19,3.5,0,0-24.3-30.7-79.86-9.76,0,0-129.92-33.78-217.86-21.9,0,0-96.42,21.82-170.35,40.08l-64,14.55,13.42,20.39s169.83-13.92,227.7-6.57c0,0-6.28,94.44,38.06,121.88,0,0,48.4,31,118.43,12.28,0,0,39-10.09,46.7-81.51,0,0,2.29-23.46,7.91-51.63,0,0,11.12-19.63,29.83-26.08,0,0,26.38-7.32,43.57,19.45,0,0-.76,11.41-1,12.33-.29,22.7,3.33,40,14.74,70.37,4.93,13.11,17.09,27.14,24.4,39,9.27,15.09,11.83,20.79,14.23,24.14,6.81,1.08,34.07,6.24,49.92,4.09,0,0,39.38-5,51.19-87,0,0,8.32-44.59,12-69.09,0,0,8.76-22-2.55-30.18"/><path id="Fill-206" class="cls-5" d="M1466.27,1182c-12.47,2.45-13.88-5.25-13.88-5.25a27.83,27.83,0,0,1-.55-8.53,11.06,11.06,0,0,0-6-10.24l5.94.49c14.57,2.31,27.07,13.62,27.07,13.62-6,8.61-12.59,9.91-12.59,9.91m50.65-85.56c-3.52-15.3-14.61-31.28-14.61-31.28-4.3-1.58-13.26-1.63-18-1.61,14.09.89,16.9,17.1,16.9,17.1,6.55,22.81.9,45.34.9,45.34-4.66,18.68-9.33,25-9.33,25-9.13,13.54-14.62,7.58-14.62,7.58a54.24,54.24,0,0,1-9.44-12.09c-13.36-11.85-32.8-7.4-32.8-7.4-11.55,1.67-19.77,10.08-19.77,10.08,4.92,21.2,25.7,45.31,25.7,45.31,24.19,2.66,35.32-8.55,35.32-8.55A22.68,22.68,0,0,0,1481,1181c5-5.37,12.63,3.23,12.63,3.23l1.25-12.53a39.59,39.59,0,0,1,7.44-11.19c23.52-29.36,14.63-64.07,14.63-64.07"/><path id="Fill-208" class="cls-5" d="M1407.61,1125.41l12.17-2.81c42.24-10.45,63.18,7.72,63.18,7.72-6.7-17.22-17.55-24.11-17.55-24.11-16.35-8.8-38.7-2.84-38.7-2.84-8.15,1.61-21.63,5.46-21.63,5.46.19,6.27,2.53,16.58,2.53,16.58"/></g></g></g><text class="cls-2" transform="translate(182.14 1194.06) rotate(86.92) scale(0.99 1)">P</text><text class="cls-2" transform="matrix(0.19, 0.97, -0.98, 0.19, 193.48, 1334.15)">A</text><text class="cls-2" transform="matrix(0.34, 0.93, -0.94, 0.34, 227.21, 1480.07)">U</text><text class="cls-2" transform="matrix(0.48, 0.87, -0.88, 0.48, 284.94, 1622.26)">L</text><text class="cls-2" transform="translate(356.21 1741.44) rotate(53.96) scale(0.99 1)">I</text><text class="cls-2" transform="matrix(0.68, 0.72, -0.73, 0.68, 419.09, 1823.44)">E</text><text class="cls-2" transform="matrix(0.76, 0.64, -0.64, 0.77, 517.27, 1921.17)"> </text><text class="cls-2" transform="matrix(0.83, 0.53, -0.54, 0.84, 595.29, 1983.54)">G</text><text class="cls-2" transform="matrix(0.9, 0.4, -0.41, 0.91, 727.19, 2061.7)">E</text><text class="cls-2" transform="translate(857.63 2114.72) rotate(15.63) scale(0.99 1)">E</text><text class="cls-2" transform="translate(992.4 2147.36) rotate(8.58) scale(0.99 1)">’</text><text class="cls-2" transform="translate(1091.37 2159.94) rotate(1.29) scale(0.99 1)">S</text><text class="cls-2" transform="matrix(0.98, -0.1, 0.1, 0.99, 1237.98, 2158)"> </text><text class="cls-2" transform="matrix(0.96, -0.22, 0.23, 0.97, 1336.4, 2145.63)">S</text><text class="cls-2" transform="matrix(0.92, -0.36, 0.37, 0.93, 1480.29, 2107.35)">L</text><text class="cls-2" transform="translate(1607.61 2051.8) rotate(-28.74) scale(0.99 1)">I</text><text class="cls-2" transform="matrix(0.8, -0.58, 0.59, 0.81, 1697.45, 1999.68)">C</text><text class="cls-2" transform="matrix(0.7, -0.7, 0.7, 0.71, 1814.82, 1907.84)">E</text><text class="cls-2" transform="translate(1909.9 1807.1) rotate(-51.62) scale(0.99 1)"> </text><text class="cls-2" transform="translate(1969.96 1727.62) rotate(-58.81) scale(0.99 1)">S</text><text class="cls-2" transform="matrix(0.38, -0.92, 0.93, 0.38, 2043.32, 1597.36)">H</text><text class="cls-2" transform="matrix(0.23, -0.96, 0.97, 0.23, 2097.14, 1452.92)">O</text><text class="cls-2" transform="translate(2127.27 1302.01) rotate(-85.8) scale(0.99 1)">P</text></svg>